<svg xmlns="http://www.w3.org/2000/svg" xmlns:xlink="http://www.w3.org/1999/xlink" width="500" zoomAndPan="magnify" viewBox="0 0 375 374.999991" height="500" preserveAspectRatio="xMidYMid meet" version="1.0"><defs><clipPath id="2bd5e9a34c"><path d="M 0 333 L 26 333 L 26 359.132812 L 0 359.132812 Z M 0 333 " clip-rule="nonzero"/></clipPath><clipPath id="658a262b37"><path d="M 349 308.171875 L 375 308.171875 L 375 359.132812 L 349 359.132812 Z M 349 308.171875 " clip-rule="nonzero"/></clipPath><clipPath id="7a70e57c38"><path d="M 6 15.703125 L 20 15.703125 L 20 29 L 6 29 Z M 6 15.703125 " clip-rule="nonzero"/></clipPath></defs><path fill="#fcba56" d="M 0.414062 83.988281 L 25.777344 83.988281 L 25.777344 109.757812 L 0 109.757812 L 0 83.988281 Z M 24.945312 84.820312 L 0.832031 84.820312 L 0.832031 108.925781 L 24.945312 108.925781 L 24.945312 84.820312 " fill-opacity="1" fill-rule="evenodd"/><path fill="#fcba56" d="M 49.890625 184.15625 L 49.890625 158.800781 L 100.609375 158.800781 L 100.609375 184.570312 L 49.890625 184.570312 Z M 50.722656 159.632812 L 50.722656 183.742188 L 99.777344 183.742188 L 99.777344 159.632812 L 50.722656 159.632812 " fill-opacity="1" fill-rule="evenodd"/><path fill="#fcba56" d="M 25.363281 108.925781 L 50.722656 108.925781 L 50.722656 159.632812 L 24.945312 159.632812 L 24.945312 108.925781 Z M 49.890625 109.757812 L 25.777344 109.757812 L 25.777344 158.800781 L 49.890625 158.800781 L 49.890625 109.757812 " fill-opacity="1" fill-rule="evenodd"/><path fill="#fcba56" d="M 25.363281 34.113281 L 50.722656 34.113281 L 50.722656 59.882812 L 24.945312 59.882812 L 24.945312 34.113281 Z M 49.890625 34.941406 L 25.777344 34.941406 L 25.777344 59.050781 L 49.890625 59.050781 L 49.890625 34.941406 " fill-opacity="1" fill-rule="evenodd"/><path fill="#fcba56" d="M 50.304688 59.050781 L 75.664062 59.050781 L 75.664062 109.757812 L 49.890625 109.757812 L 49.890625 59.050781 Z M 74.832031 59.882812 L 50.722656 59.882812 L 50.722656 108.925781 L 74.832031 108.925781 L 74.832031 59.882812 " fill-opacity="1" fill-rule="evenodd"/><path fill="#fcba56" d="M 100.195312 83.988281 L 125.554688 83.988281 L 125.554688 109.757812 L 99.777344 109.757812 L 99.777344 83.988281 Z M 124.722656 84.820312 L 100.609375 84.820312 L 100.609375 108.925781 L 124.722656 108.925781 L 124.722656 84.820312 " fill-opacity="1" fill-rule="evenodd"/><path fill="#fcba56" d="M 100.195312 133.863281 L 125.554688 133.863281 L 125.554688 159.632812 L 99.777344 159.632812 L 99.777344 133.863281 Z M 124.722656 134.695312 L 100.609375 134.695312 L 100.609375 158.800781 L 124.722656 158.800781 L 124.722656 134.695312 " fill-opacity="1" fill-rule="evenodd"/><path fill="#fcba56" d="M 125.136719 158.800781 L 150.496094 158.800781 L 150.496094 184.570312 L 124.722656 184.570312 L 124.722656 158.800781 Z M 149.667969 159.632812 L 125.554688 159.632812 L 125.554688 183.742188 L 149.667969 183.742188 L 149.667969 159.632812 " fill-opacity="1" fill-rule="evenodd"/><path fill="#fcba56" d="M 150.082031 108.925781 L 175.445312 108.925781 L 175.445312 159.632812 L 149.667969 159.632812 L 149.667969 108.925781 Z M 174.613281 109.757812 L 150.496094 109.757812 L 150.496094 158.800781 L 174.613281 158.800781 L 174.613281 109.757812 " fill-opacity="1" fill-rule="evenodd"/><path fill="#fcba56" d="M 149.667969 209.09375 L 149.667969 183.742188 L 200.390625 183.742188 L 200.390625 209.507812 L 149.667969 209.507812 Z M 150.496094 184.570312 L 150.496094 208.679688 L 199.554688 208.679688 L 199.554688 184.570312 L 150.496094 184.570312 " fill-opacity="1" fill-rule="evenodd"/><path fill="#fcba56" d="M 0.414062 183.742188 L 25.777344 183.742188 L 25.777344 209.507812 L 0 209.507812 L 0 183.742188 Z M 24.945312 184.570312 L 0.832031 184.570312 L 0.832031 208.679688 L 24.945312 208.679688 L 24.945312 184.570312 " fill-opacity="1" fill-rule="evenodd"/><path fill="#fcba56" d="M 25.363281 208.679688 L 50.722656 208.679688 L 50.722656 234.445312 L 24.945312 234.445312 L 24.945312 208.679688 Z M 49.890625 209.507812 L 25.777344 209.507812 L 25.777344 233.617188 L 49.890625 233.617188 L 49.890625 209.507812 " fill-opacity="1" fill-rule="evenodd"/><path fill="#fcba56" d="M 50.304688 233.617188 L 75.664062 233.617188 L 75.664062 284.324219 L 49.890625 284.324219 L 49.890625 233.617188 Z M 74.832031 234.445312 L 50.722656 234.445312 L 50.722656 283.492188 L 74.832031 283.492188 L 74.832031 234.445312 " fill-opacity="1" fill-rule="evenodd"/><path fill="#fcba56" d="M 74.832031 234.027344 L 74.832031 208.679688 L 125.554688 208.679688 L 125.554688 234.445312 L 74.832031 234.445312 Z M 75.664062 209.507812 L 75.664062 233.617188 L 124.722656 233.617188 L 124.722656 209.507812 L 75.664062 209.507812 " fill-opacity="1" fill-rule="evenodd"/><path fill="#fcba56" d="M 125.136719 233.617188 L 150.496094 233.617188 L 150.496094 259.382812 L 124.722656 259.382812 L 124.722656 233.617188 Z M 149.667969 234.445312 L 125.554688 234.445312 L 125.554688 258.554688 L 149.667969 258.554688 L 149.667969 234.445312 " fill-opacity="1" fill-rule="evenodd"/><path fill="#fcba56" d="M 100.195312 258.554688 L 125.554688 258.554688 L 125.554688 309.257812 L 99.777344 309.257812 L 99.777344 258.554688 Z M 124.722656 259.382812 L 100.609375 259.382812 L 100.609375 308.429688 L 124.722656 308.429688 L 124.722656 259.382812 " fill-opacity="1" fill-rule="evenodd"/><path fill="#fcba56" d="M 150.082031 283.492188 L 175.445312 283.492188 L 175.445312 309.257812 L 149.667969 309.257812 L 149.667969 283.492188 Z M 174.613281 284.324219 L 150.496094 284.324219 L 150.496094 308.429688 L 174.613281 308.429688 L 174.613281 284.324219 " fill-opacity="1" fill-rule="evenodd"/><path fill="#fcba56" d="M 25.363281 283.492188 L 50.722656 283.492188 L 50.722656 309.257812 L 24.945312 309.257812 L 24.945312 283.492188 Z M 49.890625 284.324219 L 25.777344 284.324219 L 25.777344 308.429688 L 49.890625 308.429688 L 49.890625 284.324219 " fill-opacity="1" fill-rule="evenodd"/><path fill="#fcba56" d="M 50.304688 308.429688 L 75.664062 308.429688 L 75.664062 334.199219 L 49.890625 334.199219 L 49.890625 308.429688 Z M 74.832031 309.257812 L 50.722656 309.257812 L 50.722656 333.363281 L 74.832031 333.363281 L 74.832031 309.257812 " fill-opacity="1" fill-rule="evenodd"/><g clip-path="url(#2bd5e9a34c)"><path fill="#fcba56" d="M 0.414062 333.363281 L 25.777344 333.363281 L 25.777344 359.132812 L 0 359.132812 L 0 333.363281 Z M 24.945312 334.199219 L 0.832031 334.199219 L 0.832031 358.304688 L 24.945312 358.304688 L 24.945312 334.199219 " fill-opacity="1" fill-rule="evenodd"/></g><path fill="#fcba56" d="M 224.5 283.90625 L 224.5 258.554688 L 275.222656 258.554688 L 275.222656 284.324219 L 224.5 284.324219 Z M 225.328125 259.382812 L 225.328125 283.492188 L 274.386719 283.492188 L 274.386719 259.382812 L 225.328125 259.382812 " fill-opacity="1" fill-rule="evenodd"/><path fill="#fcba56" d="M 249.859375 158.800781 L 275.222656 158.800781 L 275.222656 209.507812 L 249.445312 209.507812 L 249.445312 158.800781 Z M 274.386719 159.632812 L 250.273438 159.632812 L 250.273438 208.679688 L 274.386719 208.679688 L 274.386719 159.632812 " fill-opacity="1" fill-rule="evenodd"/><path fill="#fcba56" d="M 324.695312 283.492188 L 350.054688 283.492188 L 350.054688 309.257812 L 324.277344 309.257812 L 324.277344 283.492188 Z M 349.222656 284.324219 L 325.109375 284.324219 L 325.109375 308.429688 L 349.222656 308.429688 L 349.222656 284.324219 " fill-opacity="1" fill-rule="evenodd"/><path fill="#fcba56" d="M 274.804688 208.679688 L 300.167969 208.679688 L 300.167969 234.445312 L 274.386719 234.445312 L 274.386719 208.679688 Z M 299.332031 209.507812 L 275.222656 209.507812 L 275.222656 233.617188 L 299.332031 233.617188 L 299.332031 209.507812 " fill-opacity="1" fill-rule="evenodd"/><path fill="#fcba56" d="M 299.332031 258.96875 L 299.332031 233.617188 L 350.054688 233.617188 L 350.054688 259.382812 L 299.332031 259.382812 Z M 300.167969 234.445312 L 300.167969 258.554688 L 349.222656 258.554688 L 349.222656 234.445312 L 300.167969 234.445312 " fill-opacity="1" fill-rule="evenodd"/><path fill="#fcba56" d="M 274.804688 283.492188 L 300.167969 283.492188 L 300.167969 309.257812 L 274.386719 309.257812 L 274.386719 283.492188 Z M 299.332031 284.324219 L 275.222656 284.324219 L 275.222656 308.429688 L 299.332031 308.429688 L 299.332031 284.324219 " fill-opacity="1" fill-rule="evenodd"/><g clip-path="url(#658a262b37)"><path fill="#fcba56" d="M 349.640625 308.429688 L 375 308.429688 L 375 359.132812 L 349.222656 359.132812 L 349.222656 308.429688 Z M 374.167969 309.257812 L 350.054688 309.257812 L 350.054688 358.304688 L 374.167969 358.304688 L 374.167969 309.257812 " fill-opacity="1" fill-rule="evenodd"/></g><path fill="#fcba56" d="M 299.75 158.800781 L 325.109375 158.800781 L 325.109375 184.570312 L 299.332031 184.570312 L 299.332031 158.800781 Z M 324.277344 159.632812 L 300.167969 159.632812 L 300.167969 183.742188 L 324.277344 183.742188 L 324.277344 159.632812 " fill-opacity="1" fill-rule="evenodd"/><path fill="#fcba56" d="M 324.695312 183.742188 L 350.054688 183.742188 L 350.054688 209.507812 L 324.277344 209.507812 L 324.277344 183.742188 Z M 349.222656 184.570312 L 325.109375 184.570312 L 325.109375 208.679688 L 349.222656 208.679688 L 349.222656 184.570312 " fill-opacity="1" fill-rule="evenodd"/><path fill="#fcba56" d="M 349.640625 133.863281 L 375 133.863281 L 375 159.632812 L 349.222656 159.632812 L 349.222656 133.863281 Z M 374.167969 134.695312 L 350.054688 134.695312 L 350.054688 158.800781 L 374.167969 158.800781 L 374.167969 134.695312 " fill-opacity="1" fill-rule="evenodd"/><path fill="#fcba56" d="M 199.972656 208.679688 L 225.328125 208.679688 L 225.328125 234.445312 L 199.554688 234.445312 L 199.554688 208.679688 Z M 224.5 209.507812 L 200.390625 209.507812 L 200.390625 233.617188 L 224.5 233.617188 L 224.5 209.507812 " fill-opacity="1" fill-rule="evenodd"/><path fill="#fcba56" d="M 175.023438 233.617188 L 200.390625 233.617188 L 200.390625 259.382812 L 174.613281 259.382812 L 174.613281 233.617188 Z M 199.554688 234.445312 L 175.445312 234.445312 L 175.445312 258.554688 L 199.554688 258.554688 L 199.554688 234.445312 " fill-opacity="1" fill-rule="evenodd"/><path fill="#fcba56" d="M 6.15625 239.355469 L 20.035156 239.355469 L 20.035156 253.644531 L 5.742188 253.644531 L 5.742188 239.355469 Z M 19.203125 240.183594 L 6.570312 240.183594 L 6.570312 252.8125 L 19.203125 252.8125 L 19.203125 240.183594 " fill-opacity="1" fill-rule="evenodd"/><path fill="#fcba56" d="M 33.910156 316.972656 L 42.175781 316.972656 L 42.175781 325.652344 L 33.492188 325.652344 L 33.492188 316.972656 Z M 41.34375 317.804688 L 34.324219 317.804688 L 34.324219 324.820312 L 41.34375 324.820312 L 41.34375 317.804688 " fill-opacity="1" fill-rule="evenodd"/><path fill="#fcba56" d="M 57.898438 191.332031 L 68.070312 191.332031 L 68.070312 201.917969 L 57.484375 201.917969 L 57.484375 191.332031 Z M 67.238281 192.164062 L 58.316406 192.164062 L 58.316406 201.085938 L 67.238281 201.085938 L 67.238281 192.164062 " fill-opacity="1" fill-rule="evenodd"/><path fill="#fcba56" d="M 84.105469 242.464844 L 91.757812 242.464844 L 91.757812 250.535156 L 83.6875 250.535156 L 83.6875 242.464844 Z M 90.925781 243.296875 L 84.519531 243.296875 L 84.519531 249.699219 L 90.925781 249.699219 L 90.925781 243.296875 " fill-opacity="1" fill-rule="evenodd"/><path fill="#fcba56" d="M 8.410156 116.917969 L 17.785156 116.917969 L 17.785156 126.703125 L 7.996094 126.703125 L 7.996094 116.917969 Z M 16.953125 117.75 L 8.828125 117.75 L 8.828125 125.871094 L 16.953125 125.871094 L 16.953125 117.75 " fill-opacity="1" fill-rule="evenodd"/><path fill="#fcba56" d="M 82.140625 115.820312 L 93.714844 115.820312 L 93.714844 127.804688 L 81.730469 127.804688 L 81.730469 115.820312 Z M 92.882812 116.648438 L 82.558594 116.648438 L 82.558594 126.972656 L 92.882812 126.972656 L 92.882812 116.648438 " fill-opacity="1" fill-rule="evenodd"/><g clip-path="url(#7a70e57c38)"><path fill="#fcba56" d="M 6.992188 15.746094 L 19.203125 15.746094 L 19.203125 28.375 L 6.574219 28.375 L 6.574219 15.746094 Z M 18.371094 16.578125 L 7.40625 16.578125 L 7.40625 27.542969 L 18.371094 27.542969 L 18.371094 16.578125 " fill-opacity="1" fill-rule="evenodd"/></g><path fill="#fcba56" d="M 133.890625 67.800781 L 141.746094 67.800781 L 141.746094 76.070312 L 133.472656 76.070312 L 133.472656 67.800781 Z M 140.914062 68.632812 L 134.304688 68.632812 L 134.304688 75.242188 L 140.914062 75.242188 L 140.914062 68.632812 " fill-opacity="1" fill-rule="evenodd"/><path fill="#fcba56" d="M 204.828125 163.660156 L 220.476562 163.660156 L 220.476562 179.714844 L 204.414062 179.714844 L 204.414062 163.660156 Z M 219.644531 164.488281 L 205.246094 164.488281 L 205.246094 178.886719 L 219.644531 178.886719 L 219.644531 164.488281 " fill-opacity="1" fill-rule="evenodd"/><path fill="#fcba56" d="M 184.019531 142.855469 L 191.394531 142.855469 L 191.394531 150.644531 L 183.601562 150.644531 L 183.601562 142.855469 Z M 190.5625 143.6875 L 184.433594 143.6875 L 184.433594 149.8125 L 190.5625 149.8125 L 190.5625 143.6875 " fill-opacity="1" fill-rule="evenodd"/><path fill="#fcba56" d="M 258.53125 242.28125 L 266.550781 242.28125 L 266.550781 250.71875 L 258.117188 250.71875 L 258.117188 242.28125 Z M 265.71875 243.113281 L 258.945312 243.113281 L 258.945312 249.886719 L 265.71875 249.886719 L 265.71875 243.113281 " fill-opacity="1" fill-rule="evenodd"/><path fill="#fcba56" d="M 284.441406 143.492188 L 290.53125 143.492188 L 290.53125 150 L 284.023438 150 L 284.023438 143.492188 Z M 289.703125 144.324219 L 284.855469 144.324219 L 284.855469 149.167969 L 289.703125 149.167969 L 289.703125 144.324219 " fill-opacity="1" fill-rule="evenodd"/><path fill="#fcba56" d="M 331.40625 115.636719 L 343.339844 115.636719 L 343.339844 127.988281 L 330.988281 127.988281 L 330.988281 115.636719 Z M 342.515625 116.46875 L 331.824219 116.46875 L 331.824219 127.15625 L 342.515625 127.15625 L 342.515625 116.46875 " fill-opacity="1" fill-rule="evenodd"/><path fill="#fcba56" d="M 356.394531 215.425781 L 368.246094 215.425781 L 368.246094 227.695312 L 355.976562 227.695312 L 355.976562 215.425781 Z M 367.414062 216.261719 L 356.804688 216.261719 L 356.804688 226.863281 L 367.414062 226.863281 L 367.414062 216.261719 " fill-opacity="1" fill-rule="evenodd"/><path fill="#fcba56" d="M 358.773438 167.933594 L 365.863281 167.933594 L 365.863281 175.4375 L 358.359375 175.4375 L 358.359375 167.933594 Z M 365.03125 168.765625 L 359.195312 168.765625 L 359.195312 174.605469 L 365.03125 174.605469 L 365.03125 168.765625 " fill-opacity="1" fill-rule="evenodd"/><path fill="#fcba56" d="M 358.667969 267.578125 L 365.976562 267.578125 L 365.976562 275.300781 L 358.246094 275.300781 L 358.246094 267.578125 Z M 365.140625 268.40625 L 359.082031 268.40625 L 359.082031 274.46875 L 365.140625 274.46875 L 365.140625 268.40625 " fill-opacity="1" fill-rule="evenodd"/><path fill="#fcba56" d="M 309.449219 193.4375 L 315.410156 193.4375 L 315.410156 199.808594 L 309.039062 199.808594 L 309.039062 193.4375 Z M 314.578125 194.269531 L 309.863281 194.269531 L 309.863281 198.976562 L 314.578125 198.976562 L 314.578125 194.269531 " fill-opacity="1" fill-rule="evenodd"/><path fill="#fcba56" d="M 306.003906 314.679688 L 318.859375 314.679688 L 318.859375 327.949219 L 305.582031 327.949219 L 305.582031 314.679688 Z M 318.027344 315.511719 L 306.414062 315.511719 L 306.414062 327.113281 L 318.027344 327.113281 L 318.027344 315.511719 " fill-opacity="1" fill-rule="evenodd"/></svg>